<?xml version="1.0" encoding="UTF-8"?>
<svg version="1.1" xmlns="http://www.w3.org/2000/svg" width="500" height="500">
<path d="M0 0 C2.188477 -0.00135059 4.3769537 -0.0032944 6.56542969 -0.00579834 C11.13088871 -0.00873104 15.69626896 -0.004512 20.26171875 0.00488281 C26.0780057 0.01627613 31.89410798 0.00970667 37.71038818 -0.00226212 C42.22315837 -0.00953101 46.73588566 -0.00716981 51.24865723 -0.00200653 C53.39180524 -0.00068391 55.53495731 -0.00226838 57.67810059 -0.00696564 C78.98460918 -0.04342998 98.17345333 0.31255411 114.25 16.265625 C124.99703242 28.80081912 128.56521819 41.23311914 128.5246582 57.50756836 C128.52976913 58.58375931 128.53488007 59.65995026 128.54014587 60.76875305 C128.55395435 64.29771613 128.55309184 67.82648201 128.55078125 71.35546875 C128.55467263 73.82589286 128.55900821 76.2963163 128.56376648 78.76673889 C128.57120965 83.93362603 128.57095095 89.10044481 128.56567383 94.26733398 C128.55987818 100.86877877 128.57682212 107.46994308 128.6000185 114.07134151 C128.61479146 119.16990274 128.61562274 124.26839694 128.61250877 129.36697578 C128.61302007 131.80009072 128.6182216 134.2332096 128.62832069 136.66630363 C128.6407384 140.075814 128.6338614 143.48478456 128.62231445 146.89428711 C128.62995819 147.88631134 128.63760193 148.87833557 128.64547729 149.90042114 C128.53819344 164.32443871 123.54021343 176.50094626 113.640625 186.94140625 C101.6787943 198.57096387 89.53466326 202.58093742 73.06152344 202.5402832 C71.97893753 202.54539413 70.89635162 202.55050507 69.78096008 202.55577087 C66.22370784 202.56960135 62.66665083 202.56871471 59.109375 202.56640625 C56.61989267 202.57029732 54.130411 202.57463284 51.64093018 202.57939148 C46.42938076 202.58684007 41.2178991 202.58657267 36.00634766 202.58129883 C29.35462929 202.57551217 22.70319724 202.59242273 16.05150986 202.6156435 C10.91083171 202.63043561 5.7702199 202.63124498 0.62952423 202.62813377 C-1.82147524 202.62864443 -4.27247867 202.63383376 -6.72345734 202.64394569 C-27.75979839 202.72007667 -43.40515945 201.7819549 -59.42578125 186.7421875 C-69.38981594 176.12504801 -73.37832934 163.53654492 -73.26757812 149.18579102 C-73.2745874 148.04424561 -73.28159668 146.9027002 -73.28881836 145.7265625 C-73.30627899 141.99063054 -73.29481658 138.25546957 -73.28125 134.51953125 C-73.28394851 131.89981442 -73.2878339 129.28009856 -73.29284668 126.66038513 C-73.30009225 121.18423269 -73.29061844 115.70829712 -73.27148438 110.23217773 C-73.24973224 103.93474822 -73.256767 97.63783723 -73.27879 91.34042031 C-73.29925387 85.24068662 -73.29692925 79.14117958 -73.28526306 73.0414257 C-73.28260966 70.46483219 -73.28581626 67.88822528 -73.29518127 65.31164742 C-73.38634376 33.18269214 -73.38634376 33.18269214 -61.75 19.265625 C-61.12609375 18.49476563 -60.5021875 17.72390625 -59.859375 16.9296875 C-55.52380451 12.08112966 -50.77290488 8.81683793 -45.0625 5.828125 C-44.45220947 5.49796387 -43.84191895 5.16780273 -43.21313477 4.82763672 C-30.20599115 -1.51901245 -14.07328181 -0.03084527 0 0 Z " fill="#537398" transform="translate(222.75,148.734375)"/>
<path d="M0 0 C1.49855782 -0.01007584 1.49855782 -0.01007584 3.02738953 -0.02035522 C6.32861312 -0.03934451 9.6296334 -0.04326029 12.9309082 -0.04541016 C15.23151228 -0.05183874 17.53211553 -0.05856715 19.8327179 -0.06558228 C24.65705255 -0.07755831 29.48131559 -0.08126289 34.30566406 -0.08007812 C40.47136262 -0.07987522 46.63659878 -0.10714671 52.80218792 -0.14162254 C57.55587347 -0.16392303 62.30944843 -0.16791465 67.06318092 -0.16685867 C69.33524986 -0.16921106 71.607322 -0.17801402 73.87933922 -0.19352341 C77.06701826 -0.21324114 80.25370941 -0.20732153 83.44140625 -0.1953125 C84.37007507 -0.20655151 85.2987439 -0.21779053 86.2555542 -0.22937012 C93.37414055 -0.16163175 100.53870702 1.14572454 105.99495983 6.04058266 C111.75856561 12.31839055 112.34038552 18.09806812 112.31884766 26.34155273 C112.32395859 27.35022903 112.32906952 28.35890533 112.33433533 29.39814758 C112.34822196 32.72822013 112.34727559 36.05808556 112.3449707 39.38818359 C112.3488574 41.70316139 112.35319201 44.01813847 112.35795593 46.33311462 C112.3654156 51.18263055 112.36512812 56.03207366 112.35986328 60.8815918 C112.35406112 67.10161463 112.37101912 73.32134043 112.39420795 79.54131413 C112.40892346 84.32048795 112.4098201 89.09958981 112.40669823 93.87878227 C112.40721228 96.17254666 112.41246563 98.46631499 112.42251015 100.76005745 C112.43481824 103.9632018 112.42811707 107.16576181 112.41650391 110.36889648 C112.42414764 111.31913696 112.43179138 112.26937744 112.43966675 113.24841309 C112.38853841 119.61435019 112.38853841 119.61435019 110.73655701 122.85824585 C108.44441902 124.79812399 106.40843307 125.17028412 103.44006348 125.01858521 C99.67952693 123.87583389 97.126447 121.42129818 94.15607071 118.91937542 C74.90595609 102.78892642 56.93281646 102.84860374 32.64868164 103.75549316 C25.97824395 103.9834131 19.30388807 104.05590091 12.63043213 104.14549255 C9.09771157 104.19316095 5.5702473 104.28299045 2.03948975 104.40882874 C0.43266313 104.45105671 -1.1741685 104.49309477 -2.78100586 104.53491211 C-3.49371643 104.56979233 -4.206427 104.60467255 -4.94073486 104.64060974 C-10.44255926 104.75063641 -14.41127739 103.20956821 -18.95581055 100.29052734 C-21.0144043 98.22021484 -21.0144043 98.22021484 -22.39331055 96.16552734 C-22.86639648 95.48232422 -23.33948242 94.79912109 -23.8269043 94.09521484 C-26.12912356 90.41485049 -26.11637464 87.42494331 -26.1328125 83.18212891 C-26.1393837 82.45020325 -26.1459549 81.71827759 -26.15272522 80.96417236 C-26.17247118 78.53649801 -26.18412469 76.10888561 -26.1940918 73.68115234 C-26.19816732 72.85200066 -26.20224285 72.02284897 -26.20644188 71.16857147 C-26.22730984 66.77856189 -26.24160744 62.38858362 -26.25097656 57.99853516 C-26.26203241 53.467868 -26.29642039 48.93769316 -26.33614826 44.40719986 C-26.36232008 40.92070617 -26.37066897 37.43432956 -26.37425804 33.94774628 C-26.37912389 32.27801953 -26.39073791 30.608298 -26.40929604 28.9386673 C-26.43369665 26.59755227 -26.4327212 24.25770769 -26.42578125 21.91650391 C-26.43859131 21.23056152 -26.45140137 20.54461914 -26.46459961 19.83789062 C-26.40198454 14.02318043 -24.13708186 10.57427449 -20.2097168 6.46240234 C-19.65155273 5.99318359 -19.09338867 5.52396484 -18.51831055 5.04052734 C-17.96272461 4.56099609 -17.40713867 4.08146484 -16.8347168 3.58740234 C-11.4457188 -0.13223868 -6.3248174 -0.00610641 0 0 Z " fill="#53749A" transform="translate(206.955810546875,186.70947265625)"/>
<path d="M0 0 C1.49855782 -0.01007584 1.49855782 -0.01007584 3.02738953 -0.02035522 C6.32861312 -0.03934451 9.6296334 -0.04326029 12.9309082 -0.04541016 C15.23151228 -0.05183874 17.53211553 -0.05856715 19.8327179 -0.06558228 C24.65705255 -0.07755831 29.48131559 -0.08126289 34.30566406 -0.08007812 C40.47136262 -0.07987522 46.63659878 -0.10714671 52.80218792 -0.14162254 C57.55587347 -0.16392303 62.30944843 -0.16791465 67.06318092 -0.16685867 C69.33524986 -0.16921106 71.607322 -0.17801402 73.87933922 -0.19352341 C77.06701826 -0.21324114 80.25370941 -0.20732153 83.44140625 -0.1953125 C84.37007507 -0.20655151 85.2987439 -0.21779053 86.2555542 -0.22937012 C93.37414055 -0.16163175 100.53870702 1.14572454 105.99495983 6.04058266 C111.75856561 12.31839055 112.34038552 18.09806812 112.31884766 26.34155273 C112.32395859 27.35022903 112.32906952 28.35890533 112.33433533 29.39814758 C112.34822196 32.72822013 112.34727559 36.05808556 112.3449707 39.38818359 C112.3488574 41.70316139 112.35319201 44.01813847 112.35795593 46.33311462 C112.3654156 51.18263055 112.36512812 56.03207366 112.35986328 60.8815918 C112.35406112 67.10161463 112.37101912 73.32134043 112.39420795 79.54131413 C112.40892346 84.32048795 112.4098201 89.09958981 112.40669823 93.87878227 C112.40721228 96.17254666 112.41246563 98.46631499 112.42251015 100.76005745 C112.43481824 103.9632018 112.42811707 107.16576181 112.41650391 110.36889648 C112.42414764 111.31913696 112.43179138 112.26937744 112.43966675 113.24841309 C112.38853841 119.61435019 112.38853841 119.61435019 110.73655701 122.85824585 C108.44441902 124.79812399 106.40843307 125.17028412 103.44006348 125.01858521 C99.67952693 123.87583389 97.126447 121.42129818 94.15607071 118.91937542 C74.90595609 102.78892642 56.93281646 102.84860374 32.64868164 103.75549316 C25.97824395 103.9834131 19.30388807 104.05590091 12.63043213 104.14549255 C9.09771157 104.19316095 5.5702473 104.28299045 2.03948975 104.40882874 C0.43266313 104.45105671 -1.1741685 104.49309477 -2.78100586 104.53491211 C-3.49371643 104.56979233 -4.206427 104.60467255 -4.94073486 104.64060974 C-10.44255926 104.75063641 -14.41127739 103.20956821 -18.95581055 100.29052734 C-21.0144043 98.22021484 -21.0144043 98.22021484 -22.39331055 96.16552734 C-22.86639648 95.48232422 -23.33948242 94.79912109 -23.8269043 94.09521484 C-26.12912356 90.41485049 -26.11637464 87.42494331 -26.1328125 83.18212891 C-26.1393837 82.45020325 -26.1459549 81.71827759 -26.15272522 80.96417236 C-26.17247118 78.53649801 -26.18412469 76.10888561 -26.1940918 73.68115234 C-26.19816732 72.85200066 -26.20224285 72.02284897 -26.20644188 71.16857147 C-26.22730984 66.77856189 -26.24160744 62.38858362 -26.25097656 57.99853516 C-26.26203241 53.467868 -26.29642039 48.93769316 -26.33614826 44.40719986 C-26.36232008 40.92070617 -26.37066897 37.43432956 -26.37425804 33.94774628 C-26.37912389 32.27801953 -26.39073791 30.608298 -26.40929604 28.9386673 C-26.43369665 26.59755227 -26.4327212 24.25770769 -26.42578125 21.91650391 C-26.43859131 21.23056152 -26.45140137 20.54461914 -26.46459961 19.83789062 C-26.40198454 14.02318043 -24.13708186 10.57427449 -20.2097168 6.46240234 C-19.65155273 5.99318359 -19.09338867 5.52396484 -18.51831055 5.04052734 C-17.96272461 4.56099609 -17.40713867 4.08146484 -16.8347168 3.58740234 C-11.4457188 -0.13223868 -6.3248174 -0.00610641 0 0 Z M-11.95581055 17.29052734 C-12.42080007 20.39974702 -12.42080007 20.39974702 -12.35986328 24.00927734 C-12.36672653 24.68764648 -12.37358978 25.36601562 -12.38066101 26.06494141 C-12.39896082 28.30701635 -12.39508773 30.54839376 -12.3894043 32.79052734 C-12.39396427 34.34847238 -12.39926929 35.90641539 -12.4052887 37.46435547 C-12.41422575 40.72941256 -12.41178967 43.99422514 -12.40185547 47.25927734 C-12.39035864 51.4461592 -12.41058428 55.63219858 -12.43977261 59.81896973 C-12.45810583 63.03602469 -12.45784809 66.25287662 -12.45213509 69.4699707 C-12.45198155 71.01376529 -12.45805259 72.55757336 -12.47042656 74.10131836 C-12.48528346 76.25867822 -12.47470179 78.41446713 -12.45751953 80.57177734 C-12.45735336 81.79960937 -12.45718719 83.02744141 -12.45701599 84.29248047 C-12.20691513 87.29850043 -12.20691513 87.29850043 -10.41889954 89.19334412 C-6.96584628 90.73150702 -3.74956684 90.64936591 -0.04467773 90.56420898 C0.74950562 90.55833771 1.54368896 90.55246643 2.36193848 90.54641724 C4.08619211 90.53277474 5.81040465 90.51280613 7.53452301 90.48726082 C10.27827414 90.45026616 13.02108941 90.43789254 15.76507568 90.43321228 C23.56664794 90.41849563 31.36735071 90.3842307 39.16821289 90.27368164 C43.94551871 90.2077681 48.72091076 90.19185737 53.49861908 90.20638847 C55.30531617 90.2026387 57.1120814 90.18094806 58.91831207 90.13972664 C73.89468132 89.8085768 82.7149948 93.9508725 94.35748291 103.11048889 C95.97423141 104.48161015 95.97423141 104.48161015 98.04418945 104.29052734 C98.13682558 93.1466743 98.20792208 82.0029127 98.25143814 70.8587532 C98.27232259 65.68418031 98.30065603 60.50987062 98.34594727 55.33544922 C98.38937421 50.34283609 98.4133201 45.35047631 98.42369843 40.3576889 C98.43109545 38.451851 98.44553999 36.54602713 98.46710968 34.64029694 C98.49610192 31.97294535 98.50014724 29.30664368 98.49829102 26.63916016 C98.51267212 25.84937775 98.52705322 25.05959534 98.54187012 24.24588013 C98.51725648 20.98213946 98.25317921 18.65912702 96.63215637 15.8000946 C92.59713643 13.44645787 88.77413536 13.74179595 84.18261719 13.78881836 C82.68204269 13.78071388 82.68204269 13.78071388 81.15115356 13.77244568 C77.84306291 13.75993393 74.5358383 13.77646508 71.2277832 13.79443359 C68.93140111 13.79427868 66.63501874 13.79279089 64.33863831 13.7900238 C59.52593427 13.78863875 54.71352787 13.801217 49.90087891 13.82397461 C43.7244108 13.85237521 37.54843679 13.84961885 31.37193203 13.8368845 C26.63051616 13.82993834 21.88921502 13.83770422 17.1478138 13.85014153 C14.86997988 13.85466523 12.59213369 13.85498484 10.31429863 13.85107613 C7.13473011 13.84817397 3.95584897 13.86462311 0.77636719 13.88647461 C-0.16968887 13.88197296 -1.11574493 13.87747131 -2.09046936 13.87283325 C-3.38797119 13.8876902 -3.38797119 13.8876902 -4.71168518 13.90284729 C-5.46328195 13.90527719 -6.21487871 13.90770708 -6.98925114 13.91021061 C-9.52329609 14.40027447 -10.41203151 15.25113921 -11.95581055 17.29052734 Z " fill="#A889EA" transform="translate(206.955810546875,186.70947265625)"/>
<path d="M0 0 C4.62994259 1.72488057 7.62722164 3.61948611 10 8 C10.79839985 13.33624392 10.66939689 17.61162126 8.3125 22.5 C4.65515323 26.4538884 2.48494101 27.83500655 -2.9375 28.4375 C-7.20340057 28.26847375 -9.7139653 26.75109882 -13 24 C-15.89626035 20.70425546 -16.89660298 18.09600845 -17.3125 13.6875 C-16.83082184 8.00369775 -14.46510409 5.23719901 -10.1875 1.625 C-6.37985365 -0.31615304 -4.22575274 -0.52821909 0 0 Z " fill="#A889E9" transform="translate(253,225)"/>
<path d="M0 0 C4.18693276 3.53563211 6.55895309 6.3466247 7.25 11.875 C6.62301478 16.89088174 5.09791103 19.97617035 1.6875 23.6875 C-2.23745477 25.9912778 -5.64595979 26.70161762 -10.1875 26.375 C-13.86888882 25.17146904 -16.46911588 23.13973149 -19.125 20.3125 C-20.80625895 15.66431348 -20.95209021 11.24836937 -20.1875 6.375 C-18.52212802 2.90718838 -16.14497057 0.92932507 -12.8125 -1 C-7.93637023 -2.16098328 -4.52856288 -2.30867912 0 0 Z " fill="#A989EA" transform="translate(222.1875,226.625)"/>
<path d="M0 0 C4.28635138 2.26924485 7.60201503 4.7574112 10 9 C10.85551012 13.33655128 11.01449644 17.21317725 8.7890625 21.1328125 C5.30761917 25.35649248 2.22795734 27.74777841 -3.3125 28.375 C-7.73653879 27.92509775 -10.58445102 26.83305225 -14 24 C-17.35936808 19.34023137 -17.88897381 14.57356615 -17 9 C-13.47866429 1.68645661 -8.0019388 -1.00024235 0 0 Z " fill="#A989EA" transform="translate(288,225)"/>
<path d="" fill="#000000" transform="translate(0,0)"/>
<path d="" fill="#000000" transform="translate(0,0)"/>
<path d="" fill="#000000" transform="translate(0,0)"/>
<path d="" fill="#000000" transform="translate(0,0)"/>
<path d="" fill="#000000" transform="translate(0,0)"/>
<path d="" fill="#000000" transform="translate(0,0)"/>
<path d="" fill="#000000" transform="translate(0,0)"/>
<path d="" fill="#000000" transform="translate(0,0)"/>
<path d="" fill="#000000" transform="translate(0,0)"/>
<path d="" fill="#000000" transform="translate(0,0)"/>
<path d="" fill="#000000" transform="translate(0,0)"/>
<path d="" fill="#000000" transform="translate(0,0)"/>
<path d="" fill="#000000" transform="translate(0,0)"/>
<path d="" fill="#000000" transform="translate(0,0)"/>
<path d="" fill="#000000" transform="translate(0,0)"/>
<path d="" fill="#000000" transform="translate(0,0)"/>
<path d="" fill="#000000" transform="translate(0,0)"/>
<path d="" fill="#000000" transform="translate(0,0)"/>
<path d="" fill="#000000" transform="translate(0,0)"/>
<path d="" fill="#000000" transform="translate(0,0)"/>
<path d="" fill="#000000" transform="translate(0,0)"/>
<path d="" fill="#000000" transform="translate(0,0)"/>
<path d="" fill="#000000" transform="translate(0,0)"/>
<path d="" fill="#000000" transform="translate(0,0)"/>
<path d="" fill="#000000" transform="translate(0,0)"/>
<path d="" fill="#000000" transform="translate(0,0)"/>
</svg>
